<svg width="15" height="16" viewBox="0 0 15 16" fill="none" xmlns="http://www.w3.org/2000/svg">
<path d="M7.5 8C8.56087 8 9.57828 7.57857 10.3284 6.82843C11.0786 6.07828 11.5 5.06087 11.5 4C11.5 2.93913 11.0786 1.92172 10.3284 1.17157C9.57828 0.421427 8.56087 0 7.5 0C6.43913 0 5.42172 0.421427 4.67157 1.17157C3.92143 1.92172 3.5 2.93913 3.5 4C3.5 5.06087 3.92143 6.07828 4.67157 6.82843C5.42172 7.57857 6.43913 8 7.5 8ZM6.07188 9.5C2.99375 9.5 0.5 11.9937 0.5 15.0719C0.5 15.5844 0.915625 16 1.42813 16H13.5719C14.0844 16 14.5 15.5844 14.5 15.0719C14.5 11.9937 12.0063 9.5 8.92813 9.5H6.07188Z" fill="#1435C3"/>
</svg>
