<svg width="21" height="18" viewBox="0 0 21 18" fill="none" xmlns="http://www.w3.org/2000/svg">
<path d="M8.90511 1.23393C9.11956 0.81908 8.95784 0.309313 8.54651 0.094859C8.13518 -0.119595 7.6219 0.0421244 7.40745 0.453454L4.13439 6.74996H1.125C0.502736 6.74996 0 7.2527 0 7.87496C0 8.49723 0.502736 8.99997 1.125 8.99997L2.94962 16.2949C3.19923 17.2969 4.09923 18 5.13283 18H15.1172C16.1508 18 17.0508 17.2969 17.3005 16.2949L19.1251 8.99997C19.7473 8.99997 20.2501 8.49723 20.2501 7.87496C20.2501 7.2527 19.7473 6.74996 19.1251 6.74996H16.1157L12.8426 0.453454C12.6282 0.0421244 12.1184 -0.119595 11.7036 0.094859C11.2887 0.309313 11.1305 0.81908 11.345 1.23393L14.2137 6.74996H6.03635L8.90511 1.23393ZM6.75002 10.6875V14.0625C6.75002 14.3719 6.4969 14.625 6.18752 14.625C5.87815 14.625 5.62502 14.3719 5.62502 14.0625V10.6875C5.62502 10.3781 5.87815 10.125 6.18752 10.125C6.4969 10.125 6.75002 10.3781 6.75002 10.6875ZM10.125 10.125C10.4344 10.125 10.6875 10.3781 10.6875 10.6875V14.0625C10.6875 14.3719 10.4344 14.625 10.125 14.625C9.81566 14.625 9.56253 14.3719 9.56253 14.0625V10.6875C9.56253 10.3781 9.81566 10.125 10.125 10.125ZM14.6251 10.6875V14.0625C14.6251 14.3719 14.3719 14.625 14.0625 14.625C13.7532 14.625 13.5 14.3719 13.5 14.0625V10.6875C13.5 10.3781 13.7532 10.125 14.0625 10.125C14.3719 10.125 14.6251 10.3781 14.6251 10.6875Z" fill="#99A4AF"/>
</svg>
