<svg width="21" height="18" viewBox="0 0 21 18" fill="none" xmlns="http://www.w3.org/2000/svg">
<path d="M9.28011 1.23393C9.49456 0.81908 9.33284 0.309313 8.92151 0.094859C8.51019 -0.119595 7.9969 0.0421244 7.78245 0.453454L4.50939 6.74996H1.5C0.877736 6.74996 0.375 7.2527 0.375 7.87496C0.375 8.49723 0.877736 8.99997 1.5 8.99997L3.32462 16.2949C3.57423 17.2969 4.47423 18 5.50783 18H15.4922C16.5258 18 17.4258 17.2969 17.6755 16.2949L19.5001 8.99997C20.1223 8.99997 20.6251 8.49723 20.6251 7.87496C20.6251 7.2527 20.1223 6.74996 19.5001 6.74996H16.4907L13.2176 0.453454C13.0032 0.0421244 12.4934 -0.119595 12.0786 0.094859C11.6637 0.309313 11.5055 0.81908 11.72 1.23393L14.5887 6.74996H6.41135L9.28011 1.23393ZM7.12502 10.6875V14.0625C7.12502 14.3719 6.8719 14.625 6.56252 14.625C6.25315 14.625 6.00002 14.3719 6.00002 14.0625V10.6875C6.00002 10.3781 6.25315 10.125 6.56252 10.125C6.8719 10.125 7.12502 10.3781 7.12502 10.6875ZM10.5 10.125C10.8094 10.125 11.0625 10.3781 11.0625 10.6875V14.0625C11.0625 14.3719 10.8094 14.625 10.5 14.625C10.1907 14.625 9.93753 14.3719 9.93753 14.0625V10.6875C9.93753 10.3781 10.1907 10.125 10.5 10.125ZM15.0001 10.6875V14.0625C15.0001 14.3719 14.7469 14.625 14.4375 14.625C14.1282 14.625 13.875 14.3719 13.875 14.0625V10.6875C13.875 10.3781 14.1282 10.125 14.4375 10.125C14.7469 10.125 15.0001 10.3781 15.0001 10.6875Z" fill="#1435C3"/>
</svg>
