<svg width="16" height="15" viewBox="0 0 16 15" fill="none" xmlns="http://www.w3.org/2000/svg">
<path d="M7.03611 1.36387C7.20556 1.03609 7.07778 0.63331 6.75278 0.463866C6.42778 0.294422 6.02222 0.422199 5.85278 0.747199L3.26667 5.7222H0.888889C0.397222 5.7222 0 6.11942 0 6.61109C0 7.10276 0.397222 7.49998 0.888889 7.49998L2.33056 13.2639C2.52778 14.0555 3.23889 14.6111 4.05556 14.6111H11.9444C12.7611 14.6111 13.4722 14.0555 13.6694 13.2639L15.1111 7.49998C15.6028 7.49998 16 7.10276 16 6.61109C16 6.11942 15.6028 5.7222 15.1111 5.7222H12.7333L10.1472 0.747199C9.97778 0.422199 9.575 0.294422 9.24722 0.463866C8.91944 0.63331 8.79445 1.03609 8.96389 1.36387L11.2306 5.7222H4.76944L7.03611 1.36387ZM5.33333 8.83331V11.5C5.33333 11.7444 5.13333 11.9444 4.88889 11.9444C4.64444 11.9444 4.44444 11.7444 4.44444 11.5V8.83331C4.44444 8.58887 4.64444 8.38887 4.88889 8.38887C5.13333 8.38887 5.33333 8.58887 5.33333 8.83331ZM8 8.38887C8.24444 8.38887 8.44444 8.58887 8.44444 8.83331V11.5C8.44444 11.7444 8.24444 11.9444 8 11.9444C7.75556 11.9444 7.55556 11.7444 7.55556 11.5V8.83331C7.55556 8.58887 7.75556 8.38887 8 8.38887ZM11.5556 8.83331V11.5C11.5556 11.7444 11.3556 11.9444 11.1111 11.9444C10.8667 11.9444 10.6667 11.7444 10.6667 11.5V8.83331C10.6667 8.58887 10.8667 8.38887 11.1111 8.38887C11.3556 8.38887 11.5556 8.58887 11.5556 8.83331Z" fill="#1435C3"/>
</svg>
