<svg width="15" height="14" viewBox="0 0 15 14" fill="none" xmlns="http://www.w3.org/2000/svg">
<path d="M13.9913 1.64106C14.4111 1.2161 14.3442 0.584899 13.839 0.231803C13.3337 -0.121293 12.5833 -0.0650481 12.1635 0.359917L7.13343 5.43763L2.10336 0.359917C1.68356 -0.0650481 0.933138 -0.121293 0.427902 0.231803C-0.0773349 0.584899 -0.144204 1.2161 0.275588 1.64106L5.58429 7L0.275588 12.3589C-0.144204 12.7839 -0.0773349 13.4151 0.427902 13.7682C0.933138 14.1213 1.68356 14.065 2.10336 13.6401L7.13343 8.56237L12.1635 13.6401C12.5833 14.065 13.3337 14.1213 13.839 13.7682C14.3442 13.4151 14.4111 12.7839 13.9913 12.3589L8.68258 7L13.9913 1.64106Z" fill="#737C87"/>
</svg>
