<svg width="11" height="14" viewBox="0 0 11 14" fill="none" xmlns="http://www.w3.org/2000/svg">
<path d="M6.38601 13.6854C7.79238 11.9254 10.9999 7.65967 10.9999 5.26362C10.9999 2.35766 8.64223 0 5.73628 0C2.83032 0 0.472656 2.35766 0.472656 5.26362C0.472656 7.65967 3.68018 11.9254 5.08655 13.6854C5.42375 14.1049 6.04881 14.1049 6.38601 13.6854ZM5.73628 3.50908C6.20161 3.50908 6.64788 3.69393 6.97692 4.02297C7.30597 4.35201 7.49082 4.79829 7.49082 5.26362C7.49082 5.72895 7.30597 6.17523 6.97692 6.50427C6.64788 6.83331 6.20161 7.01816 5.73628 7.01816C5.27094 7.01816 4.82467 6.83331 4.49563 6.50427C4.16659 6.17523 3.98174 5.72895 3.98174 5.26362C3.98174 4.79829 4.16659 4.35201 4.49563 4.02297C4.82467 3.69393 5.27094 3.50908 5.73628 3.50908Z" fill="white"/>
</svg>
