<svg width="17" height="16" viewBox="0 0 17 16" fill="none" xmlns="http://www.w3.org/2000/svg">
<path d="M16.5 8C16.5 12.4194 12.9194 16 8.5 16C4.08065 16 0.5 12.4194 0.5 8C0.5 3.58065 4.08065 0 8.5 0C12.9194 0 16.5 3.58065 16.5 8ZM7.57419 12.2355L13.5097 6.3C13.7097 6.1 13.7097 5.77097 13.5097 5.57097L12.7806 4.84194C12.5806 4.64194 12.2516 4.64194 12.0516 4.84194L7.20968 9.68064L4.94839 7.41935C4.74839 7.21935 4.41935 7.21935 4.21935 7.41935L3.49032 8.14839C3.29032 8.34839 3.29032 8.67742 3.49032 8.87742L6.84516 12.2323C7.04516 12.4323 7.37419 12.4323 7.57419 12.2323V12.2355Z" fill="#1435C3"/>
</svg>
