<svg width="19" height="18" viewBox="0 0 19 18" fill="none" xmlns="http://www.w3.org/2000/svg">
<path d="M0.5 0.5C0.5 0.223858 0.723858 0 1 0H8C8.27614 0 8.5 0.223858 8.5 0.5V7.5C8.5 7.77614 8.27614 8 8 8H1C0.723858 8 0.5 7.77614 0.5 7.5V0.5ZM0.5 10.5C0.5 10.2239 0.723858 10 1 10H8C8.27614 10 8.5 10.2239 8.5 10.5V17.5C8.5 17.7761 8.27614 18 8 18H1C0.723858 18 0.5 17.7761 0.5 17.5V10.5ZM10.5 0.5C10.5 0.223858 10.7239 0 11 0H18C18.2761 0 18.5 0.223858 18.5 0.5V7.5C18.5 7.77614 18.2761 8 18 8H11C10.7239 8 10.5 7.77614 10.5 7.5V0.5ZM10.5 10.5C10.5 10.2239 10.7239 10 11 10H18C18.2761 10 18.5 10.2239 18.5 10.5V17.5C18.5 17.7761 18.2761 18 18 18H11C10.7239 18 10.5 17.7761 10.5 17.5V10.5Z" fill="#1435C3"/>
</svg>
