<svg width="20" height="16" viewBox="0 0 20 16" fill="none" xmlns="http://www.w3.org/2000/svg">
<path d="M9.99689 12.4999C7.62502 12.4999 5.70627 10.6655 5.53127 8.34049L2.25314 5.80612C1.82189 6.34675 1.42502 6.91862 1.10627 7.54362C1.03485 7.68511 0.997644 7.84138 0.997644 7.99987C0.997644 8.15836 1.03485 8.31463 1.10627 8.45612C2.80002 11.7624 6.15627 13.9999 9.99689 13.9999C10.8375 13.9999 11.65 13.8749 12.4313 13.6717L10.8094 12.4186C10.5416 12.4703 10.2696 12.4974 9.99689 12.4999ZM19.8031 14.3155L16.3469 11.6467C17.397 10.7622 18.2606 9.6776 18.8875 8.45612C18.9589 8.31463 18.9961 8.15836 18.9961 7.99987C18.9961 7.84138 18.9589 7.68511 18.8875 7.54362C17.1938 4.23737 13.8375 1.99987 9.99689 1.99987C8.38821 2.00199 6.80567 2.40702 5.39377 3.17799L1.41877 0.10612C1.36691 0.065568 1.30755 0.0356568 1.2441 0.0181028C1.18065 0.000548756 1.11436 -0.00430257 1.04903 0.00382723C0.983702 0.011957 0.920622 0.0329079 0.86341 0.0654775C0.806199 0.0980471 0.755982 0.141594 0.715643 0.19362L0.103143 0.984245C0.022223 1.08879 -0.0139996 1.22113 0.00239808 1.35231C0.0187957 1.48349 0.0864789 1.60284 0.190643 1.68424L18.5781 15.8936C18.63 15.9342 18.6894 15.9641 18.7528 15.9816C18.8163 15.9992 18.8826 16.004 18.9479 15.9959C19.0132 15.9878 19.0763 15.9668 19.1335 15.9343C19.1907 15.9017 19.2409 15.8581 19.2813 15.8061L19.8938 15.0155C19.9343 14.9636 19.9642 14.9043 19.9818 14.8408C19.9993 14.7774 20.0042 14.7111 19.9961 14.6458C19.9879 14.5804 19.967 14.5173 19.9344 14.4601C19.9018 14.4029 19.8583 14.3527 19.8063 14.3124L19.8031 14.3155ZM14.0625 9.87799L12.8344 8.92799C12.9377 8.62927 12.9926 8.31593 12.9969 7.99987C13.0027 7.53697 12.8999 7.07917 12.6968 6.66317C12.4937 6.24718 12.1959 5.88457 11.8273 5.60444C11.4588 5.3243 11.0297 5.13443 10.5745 5.05007C10.1194 4.9657 9.65073 4.98918 9.20627 5.11862C9.39444 5.37397 9.49625 5.68268 9.49689 5.99987C9.49265 6.10543 9.47693 6.21021 9.45002 6.31237L7.15002 4.53425C7.94869 3.86693 8.95613 3.50089 9.99689 3.49987C10.588 3.49946 11.1733 3.61557 11.7195 3.84157C12.2656 4.06758 12.7618 4.39903 13.1798 4.81697C13.5977 5.23492 13.9292 5.73116 14.1552 6.27731C14.3812 6.82346 14.4973 7.40881 14.4969 7.99987C14.4969 8.67487 14.3313 9.30612 14.0625 9.87799Z" fill="#99A4AF"/>
</svg>
