<svg width="21" height="18" viewBox="0 0 21 18" fill="none" xmlns="http://www.w3.org/2000/svg">
<path d="M20.5847 8.98242C20.5847 9.61523 20.0591 10.1109 19.4634 10.1109H18.3421L18.3666 15.743C18.3666 15.8379 18.3596 15.9328 18.3491 16.0277V16.5938C18.3491 17.3707 17.7219 18 16.9475 18H16.3868C16.3483 18 16.3097 18 16.2712 17.9965C16.2221 18 16.1731 18 16.124 18H14.9852H14.1442C13.3698 18 12.7426 17.3707 12.7426 16.5938V15.75V13.5C12.7426 12.8777 12.2415 12.375 11.6213 12.375H9.37866C8.75844 12.375 8.25736 12.8777 8.25736 13.5V15.75V16.5938C8.25736 17.3707 7.63012 18 6.85572 18H6.01474H4.89694C4.84438 18 4.79181 17.9965 4.73925 17.993C4.6972 17.9965 4.65516 18 4.61311 18H4.05245C3.27805 18 2.65082 17.3707 2.65082 16.5938V12.6562C2.65082 12.6246 2.65082 12.5895 2.65432 12.5578V10.1109H1.52951C0.898775 10.1109 0.408203 9.61875 0.408203 8.98242C0.408203 8.66602 0.513326 8.38477 0.758612 8.13867L9.74309 0.28125C9.98837 0.0351562 10.2687 0 10.514 0C10.7593 0 11.0396 0.0703125 11.2498 0.246094L20.1993 8.13867C20.4796 8.38477 20.6198 8.66602 20.5847 8.98242Z" fill="#1435C3"/>
</svg>
