<svg width="19" height="18" viewBox="0 0 19 18" fill="none" xmlns="http://www.w3.org/2000/svg">
<path fill-rule="evenodd" clip-rule="evenodd" d="M11.1248 2.16784C10.6845 2.11211 10.1227 1.92495 10.0236 2.5089C9.91357 3.11478 10.5411 3.07117 10.9487 3.15908C13.7246 3.76535 14.6717 4.7562 15.1344 7.44537C15.1559 7.55566 15.1676 7.69853 15.1676 7.8197C15.2005 8.13908 15.2775 8.42519 15.762 8.33767C16.0045 8.30432 16.0926 8.1725 16.1036 7.98533C16.1367 7.8197 16.1036 7.59919 16.1258 7.44537C16.1367 4.85546 13.8786 2.5089 11.1248 2.16784ZM11.3785 4.29396C11.0921 4.29396 10.8055 4.32692 10.6955 4.63572C10.5301 5.07643 10.8719 5.1973 11.2129 5.25225C12.3476 5.41788 12.9426 6.0791 13.0637 7.18056C13.0746 7.33477 13.13 7.4561 13.1958 7.55574C13.295 7.66479 13.4161 7.70956 13.5703 7.6986C13.6693 7.6986 13.7464 7.66479 13.8122 7.63223C14 7.48898 14.0328 7.22455 14.0108 6.94901C14.0328 5.70469 12.6009 4.26062 11.3785 4.29396ZM17.1279 13.0197C16.5663 12.5786 15.9492 12.1822 15.3766 11.7745C14.1982 10.981 13.1188 10.9158 12.2486 12.2042C11.753 12.9317 11.0587 12.9646 10.343 12.6448C8.34933 11.7745 6.81828 10.4194 5.91526 8.42519C5.78281 8.11677 5.69498 7.8197 5.68371 7.54424C5.6506 7.01523 5.87088 6.553 6.46595 6.14486C6.96145 5.82548 7.44592 5.43972 7.41304 4.72356C7.36913 3.78727 5.05569 0.669201 4.13098 0.327362C3.7561 0.195072 3.38162 0.217457 2.99617 0.327362C0.848288 1.04306 -0.0328156 2.76268 0.815177 4.80043C1.2998 5.94673 1.81761 7.01523 2.43437 8.01751C5.06696 12.4247 8.94386 15.6421 13.9448 17.7462C14.2861 17.8894 14.6717 17.9557 14.8808 17.9997C16.2798 18.0217 17.9097 16.6886 18.3835 15.3881C18.8462 14.1215 17.8772 13.637 17.1279 13.0197ZM10.2441 0.956089C14.7265 1.63845 16.7864 3.73161 17.3589 8.15019C17.3589 8.1945 17.3589 8.22753 17.3589 8.25971C17.3923 8.66738 17.3154 9.19678 17.8548 9.19678C18.3288 9.20781 18.3507 8.85532 18.3507 8.51356C18.3288 8.3927 18.3288 8.29344 18.3288 8.19457C18.3836 4.01819 14.6718 0.140741 10.3762 0.00806225C10.0347 0.0630147 9.37368 -0.212446 9.31889 0.503723C9.30754 0.978086 9.86927 0.911319 10.2441 0.956089Z" fill="#737C87"/>
</svg>
