<svg width="17" height="17" viewBox="0 0 17 17" fill="none" xmlns="http://www.w3.org/2000/svg">
<path d="M15.6687 11.8062L12.1687 10.3061C12.0191 10.2424 11.853 10.229 11.6951 10.2679C11.5373 10.3068 11.3964 10.3959 11.2936 10.5218L9.74361 12.4156C7.31098 11.2686 5.35328 9.31089 4.20632 6.87827L6.10011 5.32824C6.22626 5.22564 6.31555 5.08473 6.35445 4.92684C6.39336 4.76896 6.37977 4.60269 6.31574 4.45322L4.81571 0.953162C4.74543 0.792037 4.62113 0.660484 4.46425 0.581186C4.30737 0.501889 4.12773 0.479818 3.95632 0.518779L0.70626 1.26879C0.540998 1.30696 0.39355 1.40001 0.287983 1.53276C0.182415 1.66552 0.124962 1.83013 0.125 1.99974C0.125 10.0155 6.62199 16.5 14.6253 16.5C14.7949 16.5001 14.9596 16.4427 15.0924 16.3371C15.2252 16.2315 15.3183 16.0841 15.3565 15.9187L16.1065 12.6687C16.1452 12.4964 16.1227 12.3161 16.0428 12.1587C15.9629 12.0012 15.8306 11.8766 15.6687 11.8062Z" fill="#1435C3"/>
</svg>
