<svg width="16" height="24" viewBox="0 0 16 24" fill="none" xmlns="http://www.w3.org/2000/svg">
<path d="M15.5437 15.3062L12.0437 13.8061C11.8941 13.7424 11.728 13.729 11.5701 13.7679C11.4123 13.8068 11.2714 13.8959 11.1686 14.0218L9.61861 15.9156C7.18598 14.7686 5.22828 12.8109 4.08132 10.3783L5.97511 8.82824C6.10126 8.72564 6.19055 8.58473 6.22945 8.42684C6.26836 8.26896 6.25477 8.10269 6.19074 7.95322L4.69071 4.45316C4.62043 4.29204 4.49613 4.16048 4.33925 4.08119C4.18237 4.00189 4.00273 3.97982 3.83132 4.01878L0.58126 4.76879C0.415998 4.80696 0.26855 4.90001 0.162983 5.03276C0.0574152 5.16552 -3.80697e-05 5.33013 1.8926e-08 5.49974C1.8926e-08 13.5155 6.49699 20 14.5003 20C14.6699 20.0001 14.8346 19.9427 14.9674 19.8371C15.1002 19.7315 15.1933 19.5841 15.2315 19.4187L15.9815 16.1687C16.0202 15.9964 15.9977 15.8161 15.9178 15.6587C15.8379 15.5012 15.7056 15.3766 15.5437 15.3062Z" fill="#99A4AF"/>
</svg>
