<svg width="18" height="18" viewBox="0 0 18 18" fill="none" xmlns="http://www.w3.org/2000/svg">
<path opacity="0.5" d="M14.6263 7.31143C14.6263 8.92486 14.1025 10.4153 13.2202 11.6245L17.6704 16.0781C18.1097 16.5175 18.1097 17.2311 17.6704 17.6705C17.231 18.1098 16.5174 18.1098 16.078 17.6705L11.6279 13.2168C10.4187 14.1026 8.92828 14.6229 7.31485 14.6229C3.27599 14.6229 0.00341797 11.3503 0.00341797 7.31143C0.00341797 3.27257 3.27599 0 7.31485 0C11.3537 0 14.6263 3.27257 14.6263 7.31143ZM7.31485 12.3732C7.97957 12.3732 8.63778 12.2423 9.2519 11.9879C9.86602 11.7335 10.424 11.3607 10.894 10.8906C11.3641 10.4206 11.7369 9.8626 11.9913 9.24848C12.2457 8.63436 12.3766 7.97615 12.3766 7.31143C12.3766 6.64671 12.2457 5.9885 11.9913 5.37438C11.7369 4.76026 11.3641 4.20225 10.894 3.73223C10.424 3.2622 9.86602 2.88935 9.2519 2.63497C8.63778 2.3806 7.97957 2.24967 7.31485 2.24967C6.65013 2.24967 5.99192 2.3806 5.3778 2.63497C4.76367 2.88935 4.20567 3.2622 3.73564 3.73223C3.26561 4.20225 2.89277 4.76026 2.63839 5.37438C2.38401 5.9885 2.25309 6.64671 2.25309 7.31143C2.25309 7.97615 2.38401 8.63436 2.63839 9.24848C2.89277 9.8626 3.26561 10.4206 3.73564 10.8906C4.20567 11.3607 4.76367 11.7335 5.3778 11.9879C5.99192 12.2423 6.65013 12.3732 7.31485 12.3732Z" fill="#99A4AF"/>
</svg>
