<svg width="19" height="21" viewBox="0 0 19 21" fill="none" xmlns="http://www.w3.org/2000/svg">
<path d="M13.5964 5.07821H12.6326C12.6326 3.085 11.2273 1.46383 9.5001 1.46383C7.77291 1.46383 6.36764 3.085 6.36764 5.07821H5.40381C5.40381 2.55393 7.24136 0.5 9.5001 0.5C11.7588 0.5 13.5964 2.55393 13.5964 5.07821Z" fill="white"/>
<path d="M15.6122 20.5004H3.38792C2.35855 20.5004 1.51037 19.6913 1.46218 18.6629L0.849183 5.58367C0.836172 5.30898 1.05544 5.0791 1.33062 5.0791H17.6695C17.9447 5.0791 18.164 5.30898 18.151 5.58367L17.538 18.6629C17.4898 19.6913 16.6416 20.5004 15.6122 20.5004Z" fill="white"/>
<path d="M9.81582 12.5295C8.42536 12.0494 7.58124 11.6943 7.58124 10.8155C7.58124 9.9285 8.48217 9.28448 9.724 9.28448C10.5788 9.28448 11.3265 9.60074 11.6963 9.78858C11.7592 9.82069 11.9368 9.92131 12.0372 9.98505L12.1032 10.0267L12.5891 9.28017L12.5095 9.23081C12.1179 8.98116 11.0617 8.40039 9.72451 8.40039C7.96982 8.40039 6.64682 9.4383 6.64682 10.815C6.64682 12.3757 8.16005 12.898 9.49522 13.359C11.0526 13.8966 11.9982 14.3054 11.9982 15.4429C11.9982 16.3189 10.9496 17.0309 9.66009 17.0309C8.20723 17.0309 6.95829 16.0223 6.94663 16.0127L6.88169 15.9561L6.35107 16.695L6.40485 16.7367C6.76603 17.0132 8.06671 17.9145 9.65958 17.9145C11.4954 17.9145 12.9336 16.8287 12.9336 15.4429C12.9331 13.6053 11.2768 13.0341 9.81582 12.5295Z" fill="#F4511E"/>
</svg>
