<svg width="16" height="17" viewBox="0 0 16 17" fill="none" xmlns="http://www.w3.org/2000/svg">
<path d="M2.28571 0.5C1.025 0.5 0 1.525 0 2.78571V14.2143C0 15.475 1.025 16.5 2.28571 16.5H13.7143C14.975 16.5 16 15.475 16 14.2143V2.78571C16 1.525 14.975 0.5 13.7143 0.5H2.28571ZM12.0357 6.82143L7.46429 11.3929C7.12857 11.7286 6.58571 11.7286 6.25357 11.3929L3.96786 9.10714C3.63214 8.77143 3.63214 8.22857 3.96786 7.89643C4.30357 7.56429 4.84643 7.56071 5.17857 7.89643L6.85714 9.575L10.8214 5.60714C11.1571 5.27143 11.7 5.27143 12.0321 5.60714C12.3643 5.94286 12.3679 6.48571 12.0321 6.81786L12.0357 6.82143Z" fill="#1435C3"/>
</svg>
