<svg width="30" height="30" viewBox="0 0 49 49" fill="none" xmlns="http://www.w3.org/2000/svg">
<path d="M15.2059 36.4762V7.30319L13.9949 6.49219C8.84587 8.55919 5.20587 13.5882 5.20587 19.4762V29.4762C5.20587 37.2082 11.4739 43.4762 19.2059 43.4762H29.2059C33.9279 43.4762 38.0889 41.1282 40.6229 37.5452V36.4762H15.2059Z" fill="#2C5091"/>
<path d="M29.2059 5.47656H19.2059C17.3609 5.47656 15.6049 5.84256 13.9919 6.49056C10.6589 9.72656 8.20587 15.0046 8.20587 19.4766C8.20587 26.2476 9.14187 30.2116 11.9179 34.0836C12.1339 34.3846 12.2749 34.7366 12.2939 35.1056C12.3369 35.9406 12.1649 37.4706 10.6599 38.8476C10.4979 38.9956 10.6009 39.2666 10.8199 39.2756C11.7619 39.3166 13.6629 39.2616 15.6169 38.3986C16.1739 38.1526 16.8079 38.1956 17.3459 38.4816C20.6589 40.2406 24.5389 40.4766 28.2059 40.4766C32.8819 40.4766 37.5449 39.4366 40.6229 37.5606C42.2439 35.2756 43.2059 32.4906 43.2059 29.4766V19.4766C43.2059 11.7446 36.9379 5.47656 29.2059 5.47656Z" fill="white"/>
<path d="M36.9559 27.4766C34.8889 27.4766 33.2059 25.7936 33.2059 23.7266C33.2059 21.6596 34.8889 19.9766 36.9559 19.9766C39.0229 19.9766 40.7059 21.6596 40.7059 23.7266C40.7059 25.7936 39.0229 27.4766 36.9559 27.4766ZM36.9559 21.4766C35.7159 21.4766 34.7059 22.4866 34.7059 23.7266C34.7059 24.9666 35.7159 25.9766 36.9559 25.9766C38.1959 25.9766 39.2059 24.9666 39.2059 23.7266C39.2059 22.4866 38.1959 21.4766 36.9559 21.4766Z" fill="#2C5091"/>
<path d="M31.7059 27.4766H30.7059C30.4299 27.4766 30.2059 27.2526 30.2059 26.9766V18.4766H31.7059V27.4766Z" fill="#2C5091"/>
<path d="M27.2059 20.2266V20.7456C26.5769 20.2696 25.8029 19.9766 24.9559 19.9766C22.8889 19.9766 21.2059 21.6596 21.2059 23.7266C21.2059 25.7936 22.8889 27.4766 24.9559 27.4766C25.8029 27.4766 26.5769 27.1836 27.2059 26.7076V26.9766C27.2059 27.2526 27.4299 27.4766 27.7059 27.4766H28.7059V20.2266H27.2059ZM24.9559 25.9766C23.7159 25.9766 22.7059 24.9666 22.7059 23.7266C22.7059 22.4866 23.7159 21.4766 24.9559 21.4766C26.1959 21.4766 27.2059 22.4866 27.2059 23.7266C27.2059 24.9666 26.1959 25.9766 24.9559 25.9766Z" fill="#2C5091"/>
<path d="M21.4559 18.4766H13.4559V19.9766H18.7769L13.2059 26.4766H13.2319C13.0689 26.6876 12.9559 26.9396 12.9559 27.2266V27.4766H20.4559C20.7319 27.4766 20.9559 27.2526 20.9559 26.9766V25.9766H15.6349L21.2059 19.4766H21.1799C21.3429 19.2656 21.4559 19.0136 21.4559 18.7266V18.4766Z" fill="#2C5091"/>
</svg>
